<svg width="31" height="31" viewBox="0 0 31 31" fill="none" xmlns="http://www.w3.org/2000/svg">
<path d="M10.7498 30.4253C15.7522 30.4253 19.9119 26.4792 20.6645 21.1528H30.0747C30.2954 21.1528 30.4995 21.0258 30.6121 20.8187C30.7247 20.6113 30.729 20.3545 30.6234 20.1431L20.964 0.781451C20.8544 0.56202 20.6442 0.425293 20.4153 0.425293C20.1867 0.425293 19.9761 0.561687 19.8666 0.781118L15.4083 9.7115C13.9759 8.89193 12.3787 8.46053 10.7498 8.46053C5.20807 8.46053 0.699707 13.3874 0.699707 19.4431C0.699707 25.4988 5.20807 30.4253 10.7498 30.4253ZM20.415 2.5349L29.0222 19.7869H11.8023L20.415 2.5349ZM10.7498 9.82647C12.1694 9.82647 13.5613 10.1996 14.81 10.9099L10.2007 20.1427C10.0952 20.3545 10.0994 20.6113 10.212 20.8184C10.3246 21.0258 10.5288 21.1528 10.7495 21.1528H19.4029C18.666 25.709 15.0643 29.0594 10.7498 29.0594C5.89746 29.0594 1.94971 24.7454 1.94971 19.4431C1.94971 14.1404 5.89746 9.82647 10.7498 9.82647Z" fill="black"/>
</svg>
